<svg xmlns="http://www.w3.org/2000/svg" xmlns:xlink="http://www.w3.org/1999/xlink" width="265.284" height="87.837" viewBox="0 0 265.284 87.837">
  <defs>
    <filter id="Rectangle_39" x="0" y="0" width="265.284" height="87.837" filterUnits="userSpaceOnUse">
      <feOffset dy="5" input="SourceAlpha"/>
      <feGaussianBlur result="blur"/>
      <feFlood flood-opacity="0.161"/>
      <feComposite operator="in" in2="blur"/>
      <feComposite in="SourceGraphic"/>
    </filter>
  </defs>
  <g transform="matrix(1, 0, 0, 1, 0, 0)" filter="url(#Rectangle_39)">
    <path id="Rectangle_39-2" data-name="Rectangle 39" d="M171.087-6.837C150.865-6.837,141.172-1.959,131.2,15s0,46,0,46a15,15,0,0,0,15,15H390.943c8.284,0-32.47-16.082-34.2-24.662S345.433,23.372,333.7,19.882s-23.873,17.5-23.873,17.5-35.5-33.856-55.514-33.927S238.877,15,212.091,15,191.31-6.837,171.087-6.837Z" transform="translate(-126.77 6.84)" fill="#fff"/>
  </g>
</svg>
