<svg id="Symbols" xmlns="http://www.w3.org/2000/svg" width="136" height="238" viewBox="0 0 136 238">
  <g id="Scene_Home" data-name="Scene/Home" transform="translate(-16 -372)">
    <g id="Big-Leaf-Plant" transform="translate(16 371)">
      <g id="Big-Ass-Leaf" transform="translate(22)">
        <path id="leaf" d="M25.258,1.173a16.915,16.915,0,0,1,8.586.9c5.665,2.4,7.275,9.1,7.2,14.536-.084,5.855-1.327,12.249,3.124,16.966,2.046,2.169,4.591,3.828,6.6,6.037a28.536,28.536,0,0,1,5.078,7.96c2.29,5.326,3.414,11.59,1.32,17.177-1.844,4.919-6.483,9.359-5.48,14.953C52.729,85.543,58.612,90,62.29,94.351c4.163,4.919,8,11.205,8.625,17.656.6,6.182-2.087,12.434-6.217,17.107C56.448,138.451,44.045,143.028,31.54,143c-5.31-.012-11.321-.252-15.9-3.105a8.763,8.763,0,0,1-3.005-3.247,10.586,10.586,0,0,0-2.906-2.908,17.25,17.25,0,0,1-5.535-7.392c-4.538-11.233-.911-25.129,5.441-35.1,1.505-2.363,2.737-4.637,2.006-7.454-.763-2.94-2.638-5.593-4.3-8.12a65.318,65.318,0,0,1-4.792-7.582A17.2,17.2,0,0,1,1.066,59.2,30.237,30.237,0,0,1,7.578,43.336C11,38.83,15.022,34.518,15.031,28.615c.01-6.257-4.173-11.824-2.391-18.186a12.123,12.123,0,0,1,4.609-6.916C19.539,2,22.564,1.5,25.258,1.173Z" fill="#dde3e9" fill-rule="evenodd"/>
        <path id="middle-thing" d="M23.386,11.176a1.442,1.442,0,0,1,1.835-1.125c1.033.289,1.013,1.254.986,2.114a28.41,28.41,0,0,0,.934,7.776c1.321,5.332,3.761,10.245,5.695,15.366s2.839,10.4,1.705,15.816C33.473,56.23,31.795,61.2,30.7,66.315c-.964,4.506-1.989,9.257-.522,13.751,1.412,4.326,4.534,7.849,6.783,11.758a55.439,55.439,0,0,1,6.995,26.31,49.2,49.2,0,0,1-.983,12.828c-.573,2.423-1.343,5.7-3.419,7.37-.957.771-2.595,1.038-3.4-.1-.757-1.071-.093-2.73.147-3.872a58.7,58.7,0,0,0,1-15.015,54.212,54.212,0,0,0-2.346-14.36,48.6,48.6,0,0,0-6.117-11.95c-2.588-3.842-5.278-7.691-6.347-12.243-1.086-4.623-.2-9.327.976-13.862,1.248-4.8,2.883-9.455,4.573-14.122A24.78,24.78,0,0,0,29.363,39.2C27.567,29.794,22.76,20.968,23.386,11.176Z" fill="#c5cfd6" fill-rule="evenodd"/>
      </g>
      <g id="Big-Ass-Leaf-2" data-name="Big-Ass-Leaf" transform="translate(32 11)">
        <path id="leaf-2" data-name="leaf" d="M90.892,1.582a21.492,21.492,0,0,1,9.592,5.536c5.373,5.791,3.724,14.543.758,20.935-3.193,6.88-8.031,13.8-5.3,21.69,1.254,3.629,3.362,6.916,4.551,10.573a36.871,36.871,0,0,1,1.749,12.056c-.129,7.49-2.122,15.483-7.531,21-4.763,4.859-12.551,7.7-14.332,14.833-1.858,7.445,2.684,15.781,4.7,22.835,2.283,7.983,3.455,17.411.784,25.367-2.559,7.625-9.02,13.619-16.334,17-14.613,6.75-31.58,5.712-46.232-.828-6.221-2.777-13.145-6.188-17.011-11.946a11.264,11.264,0,0,1-1.809-5.4A13.591,13.591,0,0,0,2.6,150.278,22.24,22.24,0,0,1,.02,138.656c.615-15.645,12.214-30.192,24.936-38.684,3.015-2.012,5.662-4.06,6.293-7.772.659-3.874-.139-7.986-.748-11.839-.6-3.807-1.537-7.6-1.612-11.459a22.446,22.446,0,0,1,2.959-11.283c3.6-6.647,9.379-11.689,16.021-15.372,6.4-3.547,13.392-6.555,16.523-13.532,3.319-7.4,1.355-16.154,6.807-22.751C73.458,3.233,76.625.807,80.262.182,83.749-.417,87.558.57,90.892,1.582Z" fill="#dde3e9" fill-rule="evenodd"/>
        <path id="middle-thing-2" data-name="middle-thing" d="M83.651,13.811a1.838,1.838,0,0,1,2.735-.37c1.057.883.528,2.016.046,3.02a37.22,37.22,0,0,0-2.98,9.7c-1.248,7.006-.968,14.1-1.389,21.182s-2.128,13.805-6.289,19.624c-3.923,5.486-8.49,10.5-12.446,15.977-3.487,4.831-7.174,9.92-7.812,16.012-.614,5.863,1.191,11.672,1.773,17.48,1.2,12.023-1.084,23.737-5.6,34.823a64.286,64.286,0,0,1-7.867,14.676c-1.939,2.569-4.554,6.043-7.858,6.936-1.524.412-3.578-.131-3.922-1.906-.323-1.665,1.321-3.282,2.2-4.508A76.712,76.712,0,0,0,43.275,149.2a71.04,71.04,0,0,0,4.778-18.235,63.555,63.555,0,0,0-.895-17.357c-1.014-5.906-2.143-11.875-1.009-17.826,1.151-6.044,4.647-11.152,8.4-15.9,3.971-5.026,8.323-9.687,12.743-14.327a32.357,32.357,0,0,0,8.673-15.424C78.79,38.049,77.791,25.078,83.651,13.811Z" fill="#c5cfd6" fill-rule="evenodd"/>
      </g>
      <g id="Big-Ass-Leaf-3" data-name="Big-Ass-Leaf" transform="translate(0 57)">
        <path id="leaf-3" data-name="leaf" d="M13.306,0C19.2,0,24.382,3.124,27.953,7.558c4.18,5.19,5.024,11.528,6.721,17.714A15.813,15.813,0,0,0,39.517,33.5c2.315,1.9,5.255,2.283,8.026,3.212A18.73,18.73,0,0,1,59.321,48.5c2.155,6.659-.128,13.374.265,20.122.361,6.2,6.471,10.064,11.387,13.035,4.848,2.93,9.215,5.672,10.675,11.379,1.548,6.053,2.068,12.809-.077,18.788-3.57,9.956-14.019,14.34-24.116,15.02-9.163.617-20.684-.352-27.565-7-4.118-3.98-5.609-9.547-5.424-15.085a45.92,45.92,0,0,1,1.679-10.184,45.944,45.944,0,0,0,1.71-7.145c.64-6.484-5.354-7.73-10.455-9.51A24.88,24.88,0,0,1,3.224,65.425C.285,59.881-.948,53.658.814,47.554A20.863,20.863,0,0,1,5.559,39.2c.974-1.059,2.348-1.942,3.227-3.054a4.12,4.12,0,0,0,.359-3.6C7.837,26.931,3.762,22.278,2.3,16.668.989,11.605,1.767,5.3,6.4,2.038A12.089,12.089,0,0,1,13.306,0Z" fill="#c5cfd6" fill-rule="evenodd"/>
        <path id="middle-thing-3" data-name="middle-thing" d="M21.338,14.641c6.247,6.655,7.945,15.684,8.444,24.435.279,4.907-.011,10.083,1.43,14.843,1.234,4.074,4.126,7.188,7.106,10.131,6,5.925,12.693,11.948,14.448,20.523,1.03,5.032.335,10.23,1.758,15.207a41.827,41.827,0,0,0,6.343,12.788c2.231,3.076,5.138,5.431,7.577,8.3.744.875,1.81,2.164,1.5,3.4-.359,1.447-2.2,1.905-3.511,1.678-3.049-.53-5.616-3.442-7.61-5.558a47.877,47.877,0,0,1-7.407-10.159,42.71,42.71,0,0,1-4.8-13.2c-.8-4.827-.4-9.858-2.223-14.491-3.067-7.8-10.5-12.4-15.883-18.471-6.7-7.571-5.7-16.993-5.015-26.305.377-5.118.752-10.9-1.834-15.57-.987-1.784-3.188-3.447-3.612-5.474C17.658,14.858,19.78,12.981,21.338,14.641Z" fill="#afb9c5" fill-rule="evenodd"/>
      </g>
      <path id="Base" d="M28,181c0,38.058,6.211,58,39,58s39-19.942,39-58Z" fill="#89c5cc" fill-rule="evenodd"/>
    </g>
  </g>
</svg>
