<svg xmlns="http://www.w3.org/2000/svg" xmlns:xlink="http://www.w3.org/1999/xlink" width="265.941" height="87.837" viewBox="0 0 265.941 87.837">
  <defs>
    <filter id="Rectangle_39" x="0" y="0" width="265.941" height="87.837" filterUnits="userSpaceOnUse">
      <feOffset dy="5" input="SourceAlpha"/>
      <feGaussianBlur result="blur"/>
      <feFlood flood-opacity="0.161"/>
      <feComposite operator="in" in2="blur"/>
      <feComposite in="SourceGraphic"/>
    </filter>
  </defs>
  <g transform="matrix(1, 0, 0, 1, 0, 0)" filter="url(#Rectangle_39)">
    <path id="Rectangle_39-2" data-name="Rectangle 39" d="M171.087-6.837C150.865-6.837,141.172-1.959,131.2,15s0,46,0,46a15,15,0,0,0,15,15H390.943c8.284,0-15.157-11.29-16.884-19.87s-27.861-6.178-39.59-9.668-5.025-18.625-15.824-22.154-8.35-9.238-28.369-9.309S247.9,5.936,221.118,5.936,191.31-6.837,171.087-6.837Z" transform="translate(-126.77 6.84)" fill="#fff"/>
  </g>
</svg>
